#!OML:ASF G:\JayActor3\Patient Classification 1\Patient 1\Session 6\male.ASF
:FULLY-SPECIFIED
:DEGREES
927
root 2.73293 14.9976 -24.3914 174.26 -56.9973 -179.335
lowerback 18.9781 -2.54938 0.721671
upperback 3.72941 -3.53543 0.0660864
thorax -6.61727 -1.87061 0.534093
lowerneck -8.99977 -0.211574 1.67549
upperneck 27.0022 -0.445691 -5.44009
head 10.0228 -1.10031 -2.33675
rclavicle 5.84178e-014 -2.03754e-015
rhumerus -33.1717 3.43389 -87.1774
rradius 136.929
rwrist 22.3965
rhand 12.9123 -22.4016
rfingers 7.12502
rthumb 37.8831 -48.2326
lclavicle 5.84178e-014 -2.03754e-015
lhumerus -35.6409 2.03962 85.7641
lradius 120.881
lwrist 6.73946
lhand 5.36641 31.4454
lfingers 7.12502
lthumb 30.7194 58.9
rfemur -25.8847 -0.174682 14.4067
rtibia 62.2659
rfoot -26.8873 -7.85485
rtoes -15.7504
lfemur -18.6548 26.5464 -13.1351
ltibia 57.3896
lfoot -27.5499 -1.73093
ltoes -6.79758
928
root 2.7418 14.9941 -24.4016 174.625 -57.328 -179.704
lowerback 19.1241 -2.53612 0.831717
upperback 3.74233 -3.49259 0.131883
thorax -6.68317 -1.85205 0.538982
lowerneck -8.99466 -0.237065 1.64299
upperneck 27.0384 -0.491182 -5.37042
head 10.0336 -1.11556 -2.31206
rclavicle 2.16924e-014 2.10712e-014
rhumerus -33.155 3.38112 -87.1444
rradius 136.931
rwrist 22.421
rhand 12.7994 -22.4212
rfingers 7.12502
rthumb 37.7764 -48.2809
lclavicle 2.16924e-014 2.10712e-014
lhumerus -35.568 1.985 85.7596
lradius 120.862
lwrist 6.72967
lhand 5.33336 31.4179
lfingers 7.12502
lthumb 30.6879 58.8784
rfemur -25.9673 -0.40778 14.2093
rtibia 62.4344
rfoot -27.0097 -7.9822
rtoes -15.769
lfemur -18.8112 26.2505 -13.4274
ltibia 57.3776
lfoot -27.5163 -1.662
ltoes -6.92894
929
root 2.75055 14.9907 -24.4118 175.001 -57.6359 -180.093
lowerback 19.276 -2.51644 0.934119
upperback 3.75472 -3.4425 0.197976
thorax -6.75229 -1.82993 0.546945
lowerneck -8.97444 -0.261017 1.60861
upperneck 27.0758 -0.534211 -5.30538
head 10.042 -1.13071 -2.28832
rclavicle -5.75482e-014 -4.87022e-015
rhumerus -33.1521 3.34994 -87.1157
rradius 136.93
rwrist 22.456
rhand 12.6686 -22.4368
rfingers 7.12502
rthumb 37.6528 -48.3297
lclavicle -5.75482e-014 -4.87022e-015
lhumerus -35.5033 1.93752 85.7616
lradius 120.836
lwrist 6.70409
lhand 5.31425 31.3979
lfingers 7.12502
lthumb 30.6697 58.8618
rfemur -26.0474 -0.604124 14.0116
rtibia 62.6069
rfoot -27.13 -8.13995
rtoes -15.7935
lfemur -18.952 25.9967 -13.7095
ltibia 57.3672
lfoot -27.4706 -1.6224
ltoes -7.06752
930
root 2.75904 14.9871 -24.4217 175.39 -57.9174 -180.505
lowerback 19.4317 -2.48821 1.03402
upperback 3.76985 -3.38193 0.259904
thorax -6.8204 -1.80293 0.549223
lowerneck -8.95846 -0.286301 1.57454
upperneck 27.125 -0.580676 -5.23765
head 10.0554 -1.14756 -2.2645
rclavicle 5.91633e-014 -1.98785e-015
rhumerus -33.1455 3.32449 -87.0918
rradius 136.924
rwrist 22.4986
rhand 12.5425 -22.435
rfingers 7.12502
rthumb 37.5337 -48.3596
lclavicle 5.91633e-014 -1.98785e-015
lhumerus -35.4414 1.88322 85.7681
lradius 120.808
lwrist 6.67445
lhand 5.27739 31.3602
lfingers 7.12502
lthumb 30.6345 58.8306
rfemur -26.1291 -0.771986 13.8075
rtibia 62.7841
rfoot -27.247 -8.30091
rtoes -15.8107
lfemur -19.077 25.7913 -13.9845
ltibia 57.3565
lfoot -27.4151 -1.61527
ltoes -7.19383
931
root 2.76695 14.9831 -24.4308 175.83 -58.181 -180.982
lowerback 19.588 -2.45435 1.11472
upperback 3.78813 -3.31852 0.3119
thorax -6.88481 -1.77444 0.550746
lowerneck -8.94455 -0.310541 1.54318
upperneck 27.1847 -0.626209 -5.17348
head 10.0731 -1.16457 -2.24268
rclavicle -8.15017e-014 1.2921e-014
rhumerus -33.1381 3.31117 -87.0705
rradius 136.915
rwrist 22.5442
rhand 12.4243 -22.4203
rfingers 7.12502
rthumb 37.422 -48.3745
lclavicle -8.15017e-014 1.2921e-014
lhumerus -35.3822 1.82525 85.7792
lradius 120.782
lwrist 6.64423
lhand 5.22793 31.3132
lfingers 7.12502
lthumb 30.5873 58.7925
rfemur -26.2114 -0.929967 13.5644
rtibia 62.9676
rfoot -27.3583 -8.4447
rtoes -15.7997
lfemur -19.1833 25.6266 -14.2834
ltibia 57.3387
lfoot -27.3562 -1.63567
ltoes -7.30957
932
root 2.77409 14.979 -24.4393 176.309 -58.4236 -181.509
lowerback 19.7429 -2.41599 1.18253
upperback 3.81186 -3.2527 0.355275
thorax -6.94228 -1.74486 0.54926
lowerneck -8.95542 -0.334002 1.52001
upperneck 27.2709 -0.671385 -5.11637
head 10.1054 -1.18228 -2.22593
rclavicle -6.92268e-014 -7.95139e-016
rhumerus -33.1147 3.30578 -87.053
rradius 136.905
rwrist 22.5815
rhand 12.3185 -22.4344
rfingers 7.12502
rthumb 37.3219 -48.415
lclavicle -6.92268e-014 -7.95139e-016
lhumerus -35.3288 1.76783 85.7926
lradius 120.763
lwrist 6.61426
lhand 5.17526 31.2597
lfingers 7.12502
lthumb 30.5371 58.7483
rfemur -26.2947 -1.07675 13.2896
rtibia 63.1567
rfoot -27.4723 -8.56232
rtoes -15.7943
lfemur -19.2707 25.5021 -14.5983
ltibia 57.3145
lfoot -27.2999 -1.67735
ltoes -7.41899
933
root 2.78079 14.9744 -24.4469 176.813 -58.6507 -182.061
lowerback 19.8956 -2.37737 1.24951
upperback 3.83819 -3.18697 0.396088
thorax -6.99576 -1.71548 0.545113
lowerneck -8.98044 -0.354987 1.50352
upperneck 27.3738 -0.712793 -5.06857
head 10.1467 -1.19919 -2.21396
rclavicle 7.25564e-015 -8.34896e-015
rhumerus -33.077 3.30575 -87.0296
rradius 136.894
rwrist 22.6024
rhand 12.2332 -22.4591
rfingers 7.12502
rthumb 37.2412 -48.4609
lclavicle 7.25564e-015 -8.34896e-015
lhumerus -35.2832 1.71148 85.8101
lradius 120.756
lwrist 6.58577
lhand 5.11673 31.1972
lfingers 7.12502
lthumb 30.4813 58.6962
rfemur -26.386 -1.2177 12.996
rtibia 63.3518
rfoot -27.5843 -8.65678
rtoes -15.8131
lfemur -19.3529 25.4086 -14.9213
ltibia 57.2868
lfoot -27.2456 -1.73915
ltoes -7.51646
